<svg xmlns="http://www.w3.org/2000/svg" width="1120" height="320" viewBox="0 0 1120 320" fill="none">
  <rect width="1120" height="320" rx="64" fill="#F8FAFC"/>
  <g transform="translate(30 30) scale(.508)">
    <rect x="16" y="16" width="480" height="480" rx="112" fill="#0B1F3A"/>
    <circle cx="256" cy="256" r="156" stroke="#FFFFFF" stroke-opacity="0.18" stroke-width="18"/>
    <path d="M256 100A156 156 0 0 1 404 208" stroke="#F5B942" stroke-width="18" stroke-linecap="round"/>
    <path d="M408 276A156 156 0 0 1 326 397" stroke="#3B82F6" stroke-width="18" stroke-linecap="round"/>
    <path d="M294 407A156 156 0 0 1 150 365" stroke="#22C55E" stroke-width="18" stroke-linecap="round"/>
    <path d="M126 342A156 156 0 0 1 112 214" stroke="#F06464" stroke-width="18" stroke-linecap="round"/>
    <path d="M124 184A156 156 0 0 1 224 103" stroke="#2DD4BF" stroke-width="18" stroke-linecap="round"/>
    <path d="M284 235L355 150L305 267L263 287L284 235Z" fill="#F5B942"/>
    <path d="M228 277L157 362L207 245L249 225L228 277Z" fill="#2DD4BF"/>
    <circle cx="256" cy="256" r="35" fill="#F8FAFC"/>
    <circle cx="256" cy="256" r="19" fill="#0B2947"/>
  </g>
  <text x="340" y="151" fill="#0B1F3A" font-family="Inter, Arial, sans-serif" font-size="76" font-weight="700" letter-spacing="-2">Investment OS</text>
  <text x="344" y="209" fill="#516273" font-family="Inter, Arial, sans-serif" font-size="28" font-weight="500" letter-spacing="3">ANALYSIS · DECISION · EXECUTION</text>
</svg>
